<mxfile host="app.diagrams.net" modified="2024-03-27T13:52:10.317Z" agent="Mozilla/5.0 (Windows NT 10.0; Win64; x64) AppleWebKit/537.36 (KHTML, like Gecko) Chrome/123.0.0.0 Safari/537.36" etag="Rm6wTLUceSIFtUdMeM5M" version="24.1.0" type="github">
  <diagram name="Automated causal Discovery" id="5Go9I9DPSzLwvw1j1CnJ">
    <mxGraphModel dx="1155" dy="493" grid="0" gridSize="10" guides="1" tooltips="1" connect="1" arrows="1" fold="1" page="1" pageScale="1" pageWidth="850" pageHeight="1100" math="0" shadow="0">
      <root>
        <mxCell id="0" />
        <mxCell id="1" parent="0" />
        <mxCell id="6a0v0f4kpN7T9GLiEfnI-6" style="edgeStyle=orthogonalEdgeStyle;rounded=0;sketch=1;hachureGap=4;jiggle=2;curveFitting=1;orthogonalLoop=1;jettySize=auto;html=1;exitX=1;exitY=0.5;exitDx=0;exitDy=0;fontFamily=Architects Daughter;fontSource=https%3A%2F%2Ffonts.googleapis.com%2Fcss%3Ffamily%3DArchitects%2BDaughter;" edge="1" parent="1" source="6a0v0f4kpN7T9GLiEfnI-1" target="6a0v0f4kpN7T9GLiEfnI-4">
          <mxGeometry relative="1" as="geometry" />
        </mxCell>
        <mxCell id="6a0v0f4kpN7T9GLiEfnI-1" value="&lt;b&gt;CAUSAL DISCOVERY&lt;/b&gt;&lt;div&gt;USING VARIOUS CAUSAL DISCOVERY ALGORITHMS&lt;/div&gt;" style="rounded=0;whiteSpace=wrap;html=1;sketch=1;hachureGap=4;jiggle=2;curveFitting=1;fontFamily=Architects Daughter;fontSource=https%3A%2F%2Ffonts.googleapis.com%2Fcss%3Ffamily%3DArchitects%2BDaughter;" vertex="1" parent="1">
          <mxGeometry x="30" y="265" width="170" height="85" as="geometry" />
        </mxCell>
        <mxCell id="6a0v0f4kpN7T9GLiEfnI-2" value="&lt;b&gt;&lt;font style=&quot;font-size: 18px;&quot;&gt;AUTOMATE CAUSAL DISCOVERY&lt;/font&gt;&lt;/b&gt;" style="text;html=1;align=center;verticalAlign=middle;whiteSpace=wrap;rounded=0;fontFamily=Architects Daughter;fontSource=https%3A%2F%2Ffonts.googleapis.com%2Fcss%3Ffamily%3DArchitects%2BDaughter;" vertex="1" parent="1">
          <mxGeometry x="310" y="175" width="190" height="35" as="geometry" />
        </mxCell>
        <mxCell id="6a0v0f4kpN7T9GLiEfnI-7" style="edgeStyle=orthogonalEdgeStyle;rounded=0;sketch=1;hachureGap=4;jiggle=2;curveFitting=1;orthogonalLoop=1;jettySize=auto;html=1;exitX=1;exitY=0.5;exitDx=0;exitDy=0;entryX=0;entryY=0.5;entryDx=0;entryDy=0;fontFamily=Architects Daughter;fontSource=https%3A%2F%2Ffonts.googleapis.com%2Fcss%3Ffamily%3DArchitects%2BDaughter;" edge="1" parent="1" source="6a0v0f4kpN7T9GLiEfnI-4" target="6a0v0f4kpN7T9GLiEfnI-5">
          <mxGeometry relative="1" as="geometry" />
        </mxCell>
        <mxCell id="6a0v0f4kpN7T9GLiEfnI-4" value="&lt;b&gt;FINAL CAUSAL PREDICTION&lt;/b&gt;&lt;div&gt;ML PREDICTION MODELS TO ARRIVE AT FINAL CAUSAL PAIRS&lt;/div&gt;" style="rounded=0;whiteSpace=wrap;html=1;sketch=1;hachureGap=4;jiggle=2;curveFitting=1;fontFamily=Architects Daughter;fontSource=https%3A%2F%2Ffonts.googleapis.com%2Fcss%3Ffamily%3DArchitects%2BDaughter;" vertex="1" parent="1">
          <mxGeometry x="320" y="265" width="170" height="85" as="geometry" />
        </mxCell>
        <mxCell id="6a0v0f4kpN7T9GLiEfnI-5" value="&lt;b&gt;CAUSAL GRAPH&lt;/b&gt;&lt;div&gt;CREATE A CAUSAL GRAPH WITH ML MODEL PRECTIONS&lt;/div&gt;" style="rounded=0;whiteSpace=wrap;html=1;sketch=1;hachureGap=4;jiggle=2;curveFitting=1;fontFamily=Architects Daughter;fontSource=https%3A%2F%2Ffonts.googleapis.com%2Fcss%3Ffamily%3DArchitects%2BDaughter;" vertex="1" parent="1">
          <mxGeometry x="590" y="265" width="170" height="85" as="geometry" />
        </mxCell>
        <mxCell id="6a0v0f4kpN7T9GLiEfnI-9" value="&lt;span style=&quot;font-size: 18px;&quot;&gt;&lt;b&gt;CAUSAL STRUCTURE APPROACHES&lt;/b&gt;&lt;/span&gt;" style="text;html=1;align=center;verticalAlign=middle;whiteSpace=wrap;rounded=0;fontFamily=Architects Daughter;fontSource=https%3A%2F%2Ffonts.googleapis.com%2Fcss%3Ffamily%3DArchitects%2BDaughter;" vertex="1" parent="1">
          <mxGeometry x="35" y="19" width="343" height="35" as="geometry" />
        </mxCell>
        <mxCell id="6a0v0f4kpN7T9GLiEfnI-11" value="&lt;span style=&quot;font-size: 18px;&quot;&gt;1. Bases on Domain Knowledge and&amp;nbsp; assumptions&lt;/span&gt;&lt;div&gt;&lt;span style=&quot;font-size: 18px;&quot;&gt;2. Automate Causal Discovery&lt;/span&gt;&lt;/div&gt;" style="text;html=1;align=left;verticalAlign=middle;whiteSpace=wrap;rounded=0;fontFamily=Architects Daughter;fontSource=https%3A%2F%2Ffonts.googleapis.com%2Fcss%3Ffamily%3DArchitects%2BDaughter;" vertex="1" parent="1">
          <mxGeometry x="50" y="13" width="489" height="132" as="geometry" />
        </mxCell>
        <mxCell id="6a0v0f4kpN7T9GLiEfnI-13" value="&lt;div&gt;&lt;font style=&quot;font-size: 14px;&quot;&gt;&lt;b&gt;&lt;font style=&quot;&quot;&gt;Popular &lt;/font&gt;&lt;font style=&quot;&quot;&gt;Algorithms&lt;/font&gt;&lt;/b&gt;&lt;/font&gt;&lt;/div&gt;&lt;div&gt;&lt;font style=&quot;font-size: 14px;&quot;&gt;1. PC (peter&amp;amp;clark)&lt;/font&gt;&lt;/div&gt;&lt;div&gt;&lt;font style=&quot;font-size: 14px;&quot;&gt;2. GES (Greedy Equivalent Search)&lt;/font&gt;&lt;/div&gt;&lt;div&gt;&lt;font style=&quot;font-size: 14px;&quot;&gt;3. FCI (Fast Causal Inference)&lt;/font&gt;&lt;/div&gt;&lt;div&gt;&lt;font style=&quot;font-size: 14px;&quot;&gt;4. GOLEM&lt;/font&gt;&lt;/div&gt;&lt;div&gt;&lt;font style=&quot;font-size: 14px;&quot;&gt;5. LiNGAM&lt;/font&gt;&lt;/div&gt;&lt;div&gt;&lt;font style=&quot;font-size: 14px;&quot;&gt;6. CCDr_prediction&lt;/font&gt;&lt;/div&gt;" style="text;html=1;align=left;verticalAlign=middle;whiteSpace=wrap;rounded=0;fontFamily=Architects Daughter;fontSource=https%3A%2F%2Ffonts.googleapis.com%2Fcss%3Ffamily%3DArchitects%2BDaughter;" vertex="1" parent="1">
          <mxGeometry x="28" y="374" width="233" height="98" as="geometry" />
        </mxCell>
        <mxCell id="6a0v0f4kpN7T9GLiEfnI-16" value="&lt;span style=&quot;font-size: 14px;&quot;&gt;DoWhy package&lt;/span&gt;" style="text;html=1;align=center;verticalAlign=middle;whiteSpace=wrap;rounded=0;fontFamily=Architects Daughter;fontSource=https%3A%2F%2Ffonts.googleapis.com%2Fcss%3Ffamily%3DArchitects%2BDaughter;" vertex="1" parent="1">
          <mxGeometry x="590" y="350" width="119" height="30" as="geometry" />
        </mxCell>
        <mxCell id="6a0v0f4kpN7T9GLiEfnI-18" value="&lt;font style=&quot;font-size: 10px;&quot;&gt;&lt;b style=&quot;&quot;&gt;plan b:&lt;br&gt;10m CB&lt;/b&gt;&lt;/font&gt;&lt;div&gt;&lt;b style=&quot;&quot;&gt;&lt;font size=&quot;3&quot;&gt;offers_open&lt;/font&gt;&lt;/b&gt;&lt;/div&gt;" style="text;html=1;align=left;verticalAlign=middle;whiteSpace=wrap;rounded=0;fontFamily=Architects Daughter;fontSource=https%3A%2F%2Ffonts.googleapis.com%2Fcss%3Ffamily%3DArchitects%2BDaughter;" vertex="1" parent="1">
          <mxGeometry x="35" y="496" width="190" height="72" as="geometry" />
        </mxCell>
      </root>
    </mxGraphModel>
  </diagram>
</mxfile>
